<svg xmlns="http://www.w3.org/2000/svg" xmlns:xlink="http://www.w3.org/1999/xlink" version="1.1" width="512" height="512" viewBox="0 0 100 100">
  <defs>
    <g id="background" transform="matrix(2, 0, 0, 2, -76.6,-218) ">
      <path d="M 63.3 109 Q 52.95 109 45.65 116.3 38.3 123.6 38.3 134 38.3 144.35 45.65 151.7 52.95 159 63.3 159 73.65 159 81 151.7 88.3 144.35 88.3 134 88.3 123.6 81 116.3 73.65 109 63.3 109 Z" />
    </g>
    <g id="middle-1" transform="matrix(2, 0, 0, 2, 19.6,21) ">
      <path fill="#000000" fill-opacity="0.4" stroke="none" d="M 40.2 14.5 Q 40.2 12.05 39.75 9.7 L 30.05 0 20.4 18.25 0 28.55 10.45 39 Q 13.05 39.5 15.2 39.5 25.55 39.5 32.9 32.2 40.2 24.85 40.2 14.5 Z" />
    </g>
    <g id="middle-2" transform="matrix(2, 0, 0, 2, -76.6,-218) ">
      <path fill="#FFFFFF" stroke="none" d="M 77.95 119.3 Q 71.9 113.2 63.3 113.2 54.7 113.2 48.65 119.3 42.55 125.4 42.55 134 42.55 142.6 48.65 148.65 54.7 154.75 63.3 154.75 71.9 154.75 77.95 148.65 84.05 142.6 84.05 134 84.05 125.4 77.95 119.3 Z" />
    </g>
    <mask id="mask">
      <g transform="matrix(2, 0, 0, 2, -76.6,-218) ">
        <path fill="#FFFFFF" stroke="none" d="M 77.95 119.3 Q 71.9 113.2 63.3 113.2 54.7 113.2 48.65 119.3 42.55 125.4 42.55 134 42.55 142.6 48.65 148.65 54.7 154.75 63.3 154.75 71.9 154.75 77.95 148.65 84.05 142.6 84.05 134 84.05 125.4 77.95 119.3 Z" />
      </g>
    </mask>
    <linearGradient id="background-gradient" x1="0" y1="0" y2="1" x2="0" gradientTransform="rotate(235 0.5 0.5)">
      <stop stop-color="#0030ff" offset="0%" />
      <stop stop-color="#00f9ff" offset="85%" />
    </linearGradient>
    <filter id="inner-shadow" x="-50%" y="-50%" width="200%" height="200%">
      <feComponentTransfer in="SourceAlpha">
        <feFuncA type="table" tableValues="1 0" />
      </feComponentTransfer>
      <feComponentTransfer>
        <feFuncA type="linear" slope="0.9" />
      </feComponentTransfer>
      <feGaussianBlur stdDeviation="6" />
      <feOffset dx="-5" dy="-8" result="offsetblur" />
      <feFlood flood-color="#ffa506" result="color" />
      <feComposite in2="offsetblur" operator="in" />
      <feComposite in2="SourceAlpha" operator="in" />
      <feMerge>
        <feMergeNode in="SourceGraphic" />
        <feMergeNode />
      </feMerge>
    </filter>
    <g transform="scale(0.4629629302580847) translate(-41.9999885559082 -42)" id="picture">
      <path d="M258 150a108 108 0 1 1-216 0 108 108 0 1 1 216 0z" />
    </g>
    <linearGradient id="picture-gradient" x1="0" y1="0" y2="1" x2="0">
      <stop stop-color="#ffffff" offset="0%" />
      <stop stop-color="#ffff6c" offset="60%" />
    </linearGradient>
  </defs>
  <use xlink:href="#background" fill="url(#background-gradient)" />
  <!--<use xlink:href="#middle-1" />-->
  <use xlink:href="#middle-2" />
  <g mask="url(#mask)">
    <g transform="translate(50 50) translate(0 0) scale(0.8800000000000001) translate(-50 -50)">
      <use xlink:href="#picture" fill="url(#picture-gradient)" filter="url(#inner-shadow)" />
    </g>
  </g>
</svg>
